<?xml version="1.0" standalone="no"?>
<!DOCTYPE svg PUBLIC "-//W3C//DTD SVG 20010904//EN"
        "http://www.w3.org/TR/2001/REC-SVG-20010904/DTD/svg10.dtd">
<svg version="1.0" xmlns="http://www.w3.org/2000/svg"
     width="2999.000000pt" height="1000.000000pt"
     viewBox="0 0 2999.000000 1000.000000"
     preserveAspectRatio="xMidYMid meet">
    <metadata>
        Created by potrace 1.16, written by Peter Selinger 2001-2019
    </metadata>
    <g transform="translate(0.000000,1000.000000) scale(0.100000,-0.100000)"
       fill="#000000" stroke="none">
        <g class="svg-logo">
            <path d="M2745 7924 c-470 -67 -707 -135 -1050 -304 -302 -148 -539 -316 -784
-555 -472 -460 -768 -1026 -883 -1685 -21 -125 -23 -162 -23 -500 1 -333 3
-376 23 -494 111 -640 402 -1203 856 -1660 394 -397 907 -684 1446 -810 260
-61 326 -68 652 -73 339 -5 447 3 698 57 1284 273 2258 1353 2395 2655 19 187
19 487 -1 668 -53 485 -244 996 -520 1394 -442 636 -1103 1080 -1854 1246
-234 52 -307 60 -625 62 -165 2 -313 1 -330 -1z m593 -225 c141 -15 351 -55
472 -90 368 -105 738 -299 1032 -541 117 -97 312 -294 408 -413 234 -288 431
-677 525 -1037 71 -273 95 -460 95 -733 0 -265 -23 -448 -91 -717 -46 -186
-104 -340 -199 -533 -138 -279 -310 -522 -525 -740 -576 -583 -1364 -885
-2183 -835 -705 42 -1347 333 -1844 836 -357 361 -595 779 -727 1276 -170 640
-98 1366 196 1953 96 192 162 300 281 458 118 157 352 400 492 511 424 334
907 536 1433 600 137 17 503 20 635 5z"/>
            <path d="M2740 6780 c-43 -43 -13 -130 44 -130 38 0 76 36 76 74 0 64 -76 100
-120 56z"/>
            <path d="M3207 6770 c-31 -25 -36 -72 -11 -108 20 -29 76 -30 104 -2 61 61
-25 163 -93 110z"/>
            <path d="M2317 6660 c-33 -26 -38 -87 -9 -113 26 -24 77 -21 102 5 58 63 -26
161 -93 108z"/>
            <path d="M3665 6657 c-54 -46 -27 -127 42 -127 89 0 99 125 12 145 -19 5 -34
0 -54 -18z"/>
            <path d="M4083 6460 c-12 -5 -26 -18 -32 -29 -39 -72 40 -143 107 -95 33 23
31 86 -4 113 -29 23 -38 24 -71 11z"/>
            <path d="M1920 6420 c-24 -24 -26 -67 -4 -98 20 -28 83 -31 107 -4 23 25 22
85 -1 105 -25 23 -78 21 -102 -3z"/>
            <path d="M1572 6137 c-29 -31 -28 -72 3 -102 47 -48 115 -19 115 50 0 68 -73
100 -118 52z"/>
            <path d="M4407 6148 c-40 -31 -36 -115 8 -132 51 -19 105 17 105 71 0 52 -73
91 -113 61z"/>
            <path d="M4650 5790 c-20 -20 -27 -74 -12 -96 10 -15 47 -34 67 -34 26 0 65
46 65 78 0 60 -78 94 -120 52z"/>
            <path d="M1335 5765 c-14 -13 -25 -36 -25 -50 0 -33 42 -75 75 -75 36 0 65 33
65 75 0 69 -68 98 -115 50z"/>
            <path d="M2974 5672 l-45 -98 -110 -19 c-60 -10 -109 -19 -109 -21 0 -4 110
-108 139 -131 l24 -20 -17 -107 c-10 -59 -16 -110 -13 -112 3 -3 45 17 95 45
49 28 95 51 101 51 6 0 52 -21 102 -46 50 -25 93 -43 95 -41 2 2 -5 48 -16
102 -11 54 -18 106 -15 114 3 9 37 47 75 86 38 38 67 71 64 74 -2 2 -49 10
-105 17 -55 8 -103 15 -107 18 -4 2 -27 45 -52 95 -25 50 -48 91 -53 91 -4 0
-28 -44 -53 -98z"/>
            <path d="M1185 5370 c-32 -12 -48 -38 -47 -73 2 -89 142 -87 142 2 0 51 -51
89 -95 71z"/>
            <path d="M4811 5334 c-12 -15 -21 -35 -21 -45 0 -30 43 -71 75 -71 32 0 75 41
75 71 0 34 -39 71 -75 71 -24 0 -39 -7 -54 -26z"/>
            <path d="M1095 4915 c-14 -13 -25 -36 -25 -50 0 -14 11 -37 25 -50 38 -39 86
-32 111 16 39 77 -51 145 -111 84z"/>
            <path d="M4870 4910 c-43 -43 -12 -123 48 -123 43 0 72 28 72 70 0 42 -30 73
-70 73 -17 0 -39 -9 -50 -20z"/>
            <path d="M770 4405 l0 -75 205 0 205 0 0 -120 0 -120 45 0 45 0 0 120 0 120
146 0 145 0 -2 -217 -1 -218 46 -3 46 -3 0 220 0 221 135 0 135 0 0 -204 0
-203 -77 -28 c-43 -15 -82 -31 -86 -35 -9 -8 30 -127 44 -135 4 -3 29 4 56 16
159 68 538 156 790 184 292 31 673 18 973 -35 197 -35 539 -134 641 -186 21
-11 29 -11 36 -1 19 24 53 121 46 128 -5 4 -46 21 -93 39 l-85 32 3 214 3 214
132 0 132 0 0 -212 0 -213 45 0 45 0 3 213 2 212 125 0 125 0 0 -120 0 -120
45 0 45 0 0 120 0 120 264 0 c164 0 266 4 268 10 2 5 1 39 0 75 l-4 65 -2314
0 -2314 0 0 -75z m1490 -233 l0 -158 -112 -28 c-62 -15 -119 -30 -125 -33 -10
-4 -13 38 -13 186 l0 191 125 0 125 0 0 -158z m376 31 l-1 -127 -123 -17 c-68
-10 -132 -21 -143 -24 -18 -6 -19 0 -19 144 l0 151 143 0 143 0 0 -127z m356
7 l-3 -120 -107 0 c-59 0 -117 -3 -129 -6 -23 -6 -23 -6 -23 120 l0 126 133 0
132 0 -3 -120z m367 -6 l-1 -127 -66 7 c-37 3 -97 6 -134 6 l-68 0 0 120 0
120 135 0 136 0 -2 -126z m356 -24 c0 -127 -2 -150 -15 -150 -8 0 -67 9 -130
20 -63 11 -116 20 -117 20 -2 0 -3 59 -3 130 l0 130 133 0 132 0 0 -150z m355
-51 c0 -119 -4 -198 -9 -195 -5 4 -64 21 -131 39 l-122 34 -2 161 -1 162 133
0 132 0 0 -201z"/>
            <path d="M420 4467 c0 -27 48 -259 71 -342 56 -203 181 -494 289 -670 261
-428 611 -748 1055 -965 466 -228 1049 -313 1565 -229 118 19 261 52 258 60
-2 4 -133 94 -293 200 -159 106 -558 370 -885 587 -327 218 -786 522 -1020
677 -234 155 -561 372 -728 483 -281 188 -312 208 -312 199z"/>
            <path d="M5355 4271 c-165 -109 -610 -404 -990 -655 -379 -252 -810 -537 -957
-634 -147 -97 -268 -179 -268 -183 0 -3 60 -45 132 -95 73 -49 196 -134 273
-189 216 -155 242 -167 350 -167 155 1 472 157 735 361 120 93 327 297 432
425 291 355 484 762 583 1229 13 59 20 107 16 107 -3 0 -141 -89 -306 -199z"/>
        </g>
        <g class="svg-name">
            <path d="M7540 5638 l0 -1143 262 2 263 3 3 364 2 364 298 4 c287 4 300 5 374
    30 112 37 204 93 279 167 162 163 239 347 239 575 0 126 -17 207 -65 312 -93
    204 -259 360 -457 432 l-73 27 -562 3 -563 3 0 -1143z m1035 653 c58 -26 111
    -90 131 -157 24 -83 16 -242 -15 -304 -30 -58 -57 -87 -103 -111 -34 -17 -61
    -19 -278 -19 l-240 0 0 305 0 305 233 0 c203 0 237 -3 272 -19z"/>
            <path d="M10429 6753 c-6 -16 -24 -64 -39 -108 -15 -44 -51 -143 -80 -220 -54
    -147 -103 -280 -175 -480 -106 -291 -269 -736 -295 -805 -67 -172 -222 -606
    -224 -623 -1 -17 15 -18 263 -17 146 0 267 3 270 6 4 3 44 116 91 252 l85 247
    354 0 353 0 54 -155 c30 -85 69 -195 86 -245 17 -49 34 -94 38 -99 10 -10 534
    -9 538 2 1 4 -16 57 -38 118 -23 60 -80 215 -127 344 -47 129 -107 293 -133
    365 -27 71 -76 207 -110 300 -33 94 -74 204 -90 245 -16 41 -50 134 -75 205
    -26 72 -84 234 -131 360 -46 127 -93 253 -103 280 l-18 50 -242 3 -241 2 -11
    -27z m507 -1371 c-3 -2 -485 -5 -521 -2 -2 0 0 12 6 28 6 15 62 178 124 362
    62 184 119 349 125 365 12 28 20 8 141 -359 71 -215 127 -391 125 -394z"/>
            <path d="M12270 6143 c0 -367 4 -676 10 -728 23 -203 96 -413 192 -553 136
    -199 361 -334 619 -372 126 -19 390 -8 494 20 354 94 596 363 686 765 22 98
    23 117 26 803 l4 702 -266 0 -265 0 0 -618 c0 -611 -4 -717 -35 -838 -38 -146
    -133 -272 -248 -328 -116 -57 -280 -58 -401 -3 -78 36 -154 115 -199 207 -80
    163 -87 240 -87 978 l0 602 -265 0 -265 0 0 -637z"/>
            <path d="M15125 6768 c-3 -7 -4 -520 -3 -1141 l3 -1127 820 0 820 0 3 230 2
    230 -555 0 -555 0 0 910 0 910 -265 0 c-203 0 -267 -3 -270 -12z"/>
            <path d="M18049 6753 c-6 -16 -40 -107 -74 -203 -35 -96 -75 -206 -90 -245
    -15 -38 -69 -185 -120 -325 -51 -140 -137 -379 -193 -530 -55 -151 -144 -394
    -197 -540 -53 -146 -107 -295 -121 -332 -14 -37 -25 -70 -25 -74 1 -7 530 -6
    540 1 4 2 44 116 91 254 l85 251 351 0 c326 0 352 -1 359 -17 14 -36 127 -360
    148 -425 l22 -67 268 -3 c148 -2 271 0 274 5 2 4 -15 58 -37 120 -88 235 -254
    689 -316 862 -36 99 -99 270 -139 380 -61 164 -314 857 -330 903 -3 9 -61 12
    -245 12 l-240 0 -11 -27z m381 -974 c69 -209 126 -385 128 -392 2 -9 -56 -11
    -255 -9 -142 1 -261 2 -265 2 -4 0 50 165 118 368 69 202 128 377 131 390 3
    12 8 22 12 22 3 0 62 -172 131 -381z"/>
            <path d="M21647 6048 c-4 -627 -7 -745 -21 -817 -43 -215 -137 -296 -346 -294
    -115 1 -212 23 -303 66 l-67 33 -10 -35 c-5 -20 -32 -115 -58 -211 -57 -205
    -60 -193 56 -247 153 -71 335 -96 554 -74 213 21 356 76 472 182 154 141 219
    315 245 655 6 81 11 423 11 807 l0 667 -264 0 -264 0 -5 -732z"/>
            <path d="M23020 5638 l0 -1143 805 3 805 2 0 230 0 230 -540 0 -540 0 0 240 0
    240 450 0 450 0 -2 218 -3 217 -447 3 -448 2 0 215 0 215 523 2 522 3 3 233 2
    232 -790 0 -790 0 0 -1142z"/>
            <path d="M25979 6753 c-29 -76 -80 -212 -169 -458 -54 -148 -149 -407 -210
    -575 -62 -168 -156 -426 -210 -575 -54 -148 -128 -351 -164 -450 -37 -98 -65
    -183 -63 -188 3 -10 528 -11 537 0 4 4 42 111 84 237 42 126 82 238 87 248 9
    17 29 18 361 16 l350 -3 83 -244 c46 -134 87 -247 92 -252 9 -9 543 -19 543
    -11 0 6 -156 440 -185 517 -15 39 -65 174 -110 300 -46 127 -133 365 -194 530
    -60 165 -161 442 -224 615 l-115 315 -241 3 -241 2 -11 -27z m385 -990 c69
    -210 126 -383 126 -385 0 -2 -119 -3 -265 -3 -146 0 -265 2 -265 5 0 3 25 75
    55 160 30 85 89 260 131 388 43 128 81 229 84 225 4 -4 64 -180 134 -390z"/>
            <path d="M27950 5641 c0 -627 3 -1141 8 -1143 4 -2 123 -2 264 0 l258 3 2 646
    3 646 345 -428 c775 -961 704 -876 734 -870 12 2 105 4 209 4 l187 1 0 1140 0
    1140 -265 0 -265 0 -2 -666 -3 -665 -312 393 c-172 216 -410 516 -529 666
    l-216 272 -209 0 -209 0 0 -1139z"/>
            <path d="M7676 3956 c-128 -48 -188 -184 -131 -296 30 -58 80 -87 210 -121 49
    -13 97 -31 107 -41 24 -24 23 -63 -4 -88 -36 -33 -144 -25 -171 14 -4 6 -12
    29 -18 51 -15 56 -26 65 -74 65 -72 0 -83 -18 -86 -135 -3 -133 -3 -132 26
    -151 32 -21 83 -10 97 22 11 23 11 23 37 6 95 -65 248 -55 329 21 56 52 85
    161 62 231 -27 83 -95 129 -241 162 -100 22 -109 28 -109 69 0 41 20 55 82 55
    63 0 90 -18 108 -70 20 -57 54 -77 105 -60 39 13 42 23 44 148 1 70 -2 85 -19
    102 -11 11 -31 20 -45 20 -26 0 -65 -31 -65 -52 0 -6 -10 -2 -22 9 -36 32 -63
    43 -125 48 -38 4 -72 0 -97 -9z"/>
            <path d="M8253 3937 c-17 -13 -23 -29 -23 -56 0 -50 17 -69 65 -73 l40 -3 17
-75 c10 -41 37 -156 59 -255 23 -99 45 -188 50 -197 8 -15 25 -18 113 -18 97
0 103 1 113 23 6 12 22 97 37 187 15 91 31 179 35 195 9 29 9 29 10 4 2 -56
62 -384 73 -396 15 -18 201 -18 217 0 6 8 20 54 31 103 11 49 39 167 61 262
l41 172 38 0 c46 0 65 20 65 71 0 67 -13 72 -179 72 -160 1 -171 -3 -182 -59
-9 -48 16 -84 57 -84 21 0 30 -4 26 -12 -2 -7 -17 -81 -32 -165 -16 -84 -32
-150 -36 -148 -4 3 -10 31 -13 62 -4 32 -13 94 -21 138 -7 44 -19 116 -25 161
-7 45 -16 87 -20 94 -11 18 -196 22 -211 4 -5 -7 -17 -54 -25 -106 -8 -51 -21
-133 -29 -183 -8 -49 -17 -112 -21 -138 -4 -26 -8 -46 -10 -44 -4 4 -64 307
-64 325 0 6 11 12 24 12 35 0 56 26 56 69 0 66 -19 74 -177 75 -118 1 -140 -1
-160 -17z"/>
            <path d="M9463 3933 c-27 -26 -30 -69 -8 -100 11 -16 28 -23 63 -25 l47 -3 0
-200 0 -200 -47 -3 c-35 -2 -52 -9 -63 -25 -20 -29 -19 -70 3 -97 18 -22 20
-22 340 -23 232 0 326 3 334 11 7 7 12 59 14 142 2 116 0 133 -18 155 -15 19
-29 25 -59 25 -60 0 -79 -25 -79 -104 0 -81 -10 -90 -110 -94 -111 -6 -120 2
-120 89 0 55 3 71 16 76 26 10 49 -11 51 -46 2 -42 19 -61 54 -61 49 0 57 24
53 177 -2 81 -8 141 -15 149 -14 17 -61 18 -77 2 -7 -7 -12 -22 -12 -34 0 -40
-11 -54 -41 -54 -28 0 -29 1 -29 54 0 34 5 58 14 65 9 8 47 11 107 9 l94 -3 1
-69 c1 -59 5 -72 24 -88 30 -24 85 -23 110 2 17 17 19 33 19 144 0 98 -3 127
-15 137 -11 9 -95 12 -322 13 -304 1 -307 1 -329 -21z"/>
            <path d="M10670 3949 c-37 -13 -52 -44 -124 -250 -111 -319 -101 -299 -147
-299 -49 0 -79 -27 -79 -72 0 -18 7 -42 16 -53 14 -19 27 -20 180 -21 188 0
199 4 199 77 0 44 -14 59 -57 59 -34 0 -38 30 -8 60 17 17 33 20 99 20 87 0
111 -12 111 -56 0 -21 -5 -24 -35 -24 -55 0 -75 -62 -36 -112 19 -24 21 -24
180 -24 184 1 196 6 196 77 0 48 -22 69 -71 69 -18 0 -36 4 -39 10 -3 5 -37
114 -75 242 -85 285 -89 293 -130 302 -46 9 -150 6 -180 -5z m116 -236 c12
-53 20 -101 18 -105 -8 -13 -104 -10 -104 4 0 22 53 208 58 204 3 -3 15 -49
28 -103z"/>
            <path d="M11319 3922 c-44 -56 -10 -117 65 -117 l41 0 0 -205 0 -205 -39 2
c-73 5 -115 -72 -67 -124 18 -19 31 -20 205 -20 170 0 187 2 203 19 23 25 22
82 -2 108 -15 17 -27 20 -51 16 -43 -9 -56 10 -52 76 l3 53 51 3 c38 2 56 -2
76 -17 24 -19 26 -28 30 -110 2 -72 7 -95 24 -118 21 -27 24 -28 129 -31 128
-3 145 5 145 74 0 53 -22 78 -61 70 -37 -7 -49 15 -49 88 0 44 -5 60 -26 85
-14 17 -40 35 -57 40 l-32 8 43 18 c58 24 86 65 86 129 1 71 -26 120 -83 154
l-46 27 -258 1 -258 0 -20 -24z m446 -137 c30 -29 32 -55 6 -86 -16 -20 -28
-24 -83 -24 l-63 0 -3 53 c-4 69 7 82 70 82 39 0 54 -5 73 -25z"/>
            <path d="M12261 3948 c-26 -9 -43 -62 -30 -96 13 -35 26 -42 75 -42 38 0 42
-2 48 -31 8 -40 8 -327 0 -356 -5 -19 -13 -23 -48 -23 -50 0 -62 -7 -75 -43
-8 -21 -7 -36 4 -62 7 -19 18 -35 22 -36 4 0 153 -1 331 -1 254 -1 325 1 332
11 4 7 8 72 8 145 1 157 -6 176 -69 176 -30 0 -47 -7 -66 -26 -23 -23 -25 -30
-19 -83 9 -75 -1 -83 -103 -89 -113 -6 -123 1 -119 91 3 69 4 72 28 72 21 0
25 -5 28 -35 4 -42 27 -70 58 -70 47 0 53 19 51 173 -2 78 -6 148 -10 155 -10
16 -73 16 -83 0 -4 -7 -10 -28 -14 -48 -4 -29 -10 -36 -33 -38 l-28 -3 3 63 3
63 105 0 105 0 -4 -63 c-3 -55 0 -67 20 -88 30 -32 81 -32 113 -1 21 21 22 30
21 145 -1 76 -6 127 -13 134 -13 13 -609 18 -641 6z"/>
            <path d="M13171 3946 c-39 -17 -49 -85 -19 -123 6 -7 32 -13 58 -13 47 0 47 0
54 -37 8 -49 8 -302 0 -342 -6 -29 -9 -31 -54 -31 -57 0 -75 -17 -75 -71 0
-69 11 -73 202 -73 194 -1 206 3 206 72 0 56 -16 72 -69 72 l-44 0 0 154 c0
85 -3 161 -6 170 -13 34 12 14 27 -22 122 -282 175 -401 187 -419 13 -21 21
-23 116 -23 66 0 106 4 114 12 9 9 12 76 12 238 0 124 3 242 6 263 7 37 7 37
55 37 38 0 51 4 63 22 9 12 16 30 16 40 0 30 -22 67 -44 74 -12 4 -90 7 -174
7 -130 0 -155 -2 -171 -17 -28 -25 -34 -62 -16 -96 14 -26 21 -30 60 -30 42 0
44 -2 50 -32 3 -18 5 -98 3 -176 l-3 -144 -95 231 c-52 127 -100 238 -107 247
-11 14 -35 17 -172 18 -88 1 -169 -3 -180 -8z"/>
            <path d="M14395 3961 c-86 -21 -160 -84 -195 -167 -44 -102 -50 -247 -15 -362
    20 -67 82 -137 150 -168 70 -33 173 -33 237 -1 45 23 45 23 54 2 7 -16 20 -21
    60 -23 70 -4 78 8 84 132 l5 101 32 3 c58 6 83 75 45 122 -18 22 -26 23 -182
    25 -159 2 -165 1 -187 -21 -29 -29 -29 -54 -2 -88 14 -18 29 -26 48 -24 36 3
    51 -8 51 -38 0 -39 -42 -74 -89 -74 -83 0 -131 77 -131 207 1 159 71 251 172
    225 33 -8 51 -32 78 -109 19 -51 97 -65 134 -24 21 23 32 229 13 255 -20 28
    -76 24 -101 -7 -21 -25 -21 -25 -44 -6 -48 38 -147 57 -217 40z"/>
            <path d="M15043 3937 c-17 -14 -23 -29 -23 -56 0 -48 22 -69 80 -73 l45 -3 3
-194 c1 -126 -1 -198 -8 -205 -6 -6 -26 -9 -46 -7 -48 4 -74 -21 -74 -70 0
-27 6 -42 23 -56 21 -16 43 -18 206 -17 207 2 221 7 221 74 0 49 -26 73 -76
68 -29 -2 -39 1 -45 17 -9 24 -11 340 -3 373 5 18 13 22 49 22 52 0 75 23 75
73 0 35 -20 66 -43 68 -7 0 -90 2 -186 2 -155 2 -177 0 -198 -16z"/>
            <path d="M15680 3948 c-40 -15 -54 -92 -22 -121 9 -8 37 -17 62 -19 l45 -3 0
-200 0 -200 -47 -3 c-35 -2 -52 -9 -63 -25 -23 -33 -19 -82 8 -104 21 -16 43
-18 192 -17 189 1 195 4 195 74 0 46 -25 70 -72 70 -23 0 -38 5 -42 16 -3 9
-6 88 -6 177 l1 162 30 -65 c17 -36 62 -139 101 -230 39 -91 78 -173 86 -182
12 -15 32 -18 111 -18 53 0 103 5 111 10 12 8 16 53 20 272 l5 263 45 3 c25 2
53 11 62 19 23 21 23 75 0 103 -17 21 -25 22 -186 23 -164 1 -169 0 -187 -22
-43 -52 -14 -118 54 -123 l42 -3 2 -170 3 -170 -96 230 c-53 127 -102 236
-109 244 -10 10 -52 14 -170 15 -86 0 -165 -2 -175 -6z"/>
            <path d="M17240 3520 l0 -520 70 0 70 0 -2 518 -3 517 -67 3 -68 3 0 -521z"/>
        </g>
        <g class="svg-race">
            <path d="M19745 3960 c-107 -17 -175 -97 -175 -205 0 -70 27 -126 78 -159 20
    -14 80 -37 132 -51 118 -33 140 -46 140 -85 0 -47 -31 -70 -94 -70 -67 0 -101
    24 -117 83 -15 58 -25 67 -75 67 -71 0 -81 -17 -82 -145 0 -60 3 -116 8 -126
    20 -37 102 -31 114 9 6 17 10 17 67 -11 99 -50 221 -35 298 36 36 34 71 115
    71 169 0 117 -62 176 -231 218 -120 29 -129 34 -129 69 0 44 23 61 85 61 63 0
    89 -18 107 -75 20 -63 88 -83 133 -39 13 13 15 36 13 122 -3 104 -4 107 -30
    121 -35 20 -82 5 -86 -27 -4 -26 -15 -28 -33 -6 -31 37 -116 57 -194 44z"/>
            <path d="M21371 3959 c-80 -16 -153 -92 -165 -173 -17 -111 49 -200 170 -231
    162 -41 184 -53 184 -103 0 -61 -129 -88 -184 -37 -14 13 -26 34 -26 45 0 24
    -18 61 -34 72 -21 14 -84 8 -106 -10 -20 -16 -22 -29 -25 -122 -3 -115 5 -143
    49 -154 33 -8 73 8 81 34 6 19 8 20 24 6 51 -47 181 -63 255 -32 101 42 149
    111 149 214 1 130 -49 178 -238 226 -53 13 -102 29 -108 35 -16 16 -11 63 9
    78 23 17 115 17 137 1 9 -7 25 -34 36 -61 22 -51 54 -72 97 -61 40 10 51 40
    52 138 1 103 -6 122 -48 131 -35 8 -80 -15 -80 -41 0 -11 -8 -9 -33 10 -28 21
    -120 49 -146 45 -3 -1 -26 -5 -50 -10z"/>
            <path d="M27180 3960 c-95 -13 -166 -53 -195 -110 -23 -45 -20 -124 8 -155 29
    -34 96 -45 132 -21 38 25 60 73 45 104 -16 35 -2 45 65 45 64 0 95 -21 95 -63
    0 -38 -32 -63 -138 -108 -153 -66 -218 -124 -243 -215 -18 -68 11 -154 65
    -187 56 -35 146 3 146 62 0 37 13 35 80 -10 75 -52 112 -66 165 -60 55 7 88
    27 120 76 45 69 43 150 -5 202 -37 39 -90 41 -125 5 -32 -31 -32 -69 0 -101
    14 -14 25 -27 25 -29 0 -15 -43 0 -90 32 -71 48 -141 56 -194 23 -27 -16 -35
    -18 -30 -6 9 23 42 41 143 75 203 69 262 117 269 221 11 157 -131 250 -338
    220z"/>
            <path d="M27997 3960 c-135 -23 -229 -146 -242 -318 -13 -181 61 -335 185
    -384 115 -45 257 -20 336 59 79 79 115 254 83 405 -37 174 -179 268 -362 238z
    m132 -166 c44 -37 65 -114 59 -218 -5 -96 -32 -157 -79 -182 -118 -60 -217
    125 -163 306 32 109 115 151 183 94z"/>
            <path d="M28800 3960 c-114 -15 -199 -80 -214 -163 -19 -105 98 -178 174 -109
    30 26 36 50 28 106 -6 38 104 44 145 8 23 -21 22 -67 -4 -91 -11 -10 -60 -36
    -109 -56 -158 -66 -230 -130 -251 -225 -30 -132 100 -247 189 -167 13 12 22
    32 22 49 0 16 5 28 12 28 7 0 43 -21 81 -47 57 -40 77 -47 125 -51 48 -3 63 0
    92 20 94 64 118 191 50 260 -51 51 -132 29 -146 -39 -5 -26 -1 -37 20 -58 52
    -51 13 -42 -104 25 -42 24 -116 26 -148 4 -31 -22 -37 -12 -9 13 12 11 60 33
    107 48 184 60 257 111 280 196 21 76 -16 164 -87 209 -26 17 -60 32 -77 34
    -72 11 -124 13 -176 6z"/>
            <path d="M29617 3960 c-94 -16 -162 -73 -209 -176 -20 -43 -23 -65 -23 -184 0
    -132 1 -137 32 -201 53 -108 138 -160 263 -161 133 -2 213 44 270 156 l35 69
    0 141 c0 133 -2 144 -27 192 -15 28 -39 65 -53 82 -54 64 -179 100 -288 82z
    m138 -173 c45 -45 58 -101 53 -214 -6 -106 -24 -147 -79 -177 -43 -23 -80 -16
    -119 23 -36 35 -50 87 -50 181 0 98 14 146 55 187 46 46 94 46 140 0z"/>
            <path d="M18163 3952 c-50 -7 -72 -92 -33 -127 14 -13 29 -16 55 -12 21 4 38
    1 42 -6 5 -7 10 -105 13 -218 5 -205 5 -206 33 -248 38 -58 111 -91 215 -98
    153 -11 264 37 312 132 24 48 25 58 26 238 0 103 4 190 8 194 3 4 26 6 50 4
    45 -2 58 7 71 47 9 31 -12 80 -39 88 -37 13 -325 7 -341 -6 -8 -7 -17 -27 -21
    -46 -8 -44 15 -81 53 -86 l28 -3 0 -172 c0 -159 -2 -174 -21 -200 -18 -24 -29
    -28 -77 -31 -50 -3 -60 0 -82 22 -25 25 -25 26 -25 206 l0 180 23 0 c13 0 31
    6 41 13 25 19 24 83 -2 110 -19 18 -34 20 -164 21 -79 1 -153 0 -165 -2z"/>
            <path d="M21970 3948 c-39 -15 -52 -76 -24 -116 13 -19 24 -23 55 -21 21 2 43
    -1 49 -7 7 -7 9 -81 8 -205 l-3 -194 -48 -3 c-37 -2 -51 -8 -63 -28 -18 -27
    -13 -84 10 -104 20 -16 653 -17 669 -1 15 15 19 258 4 286 -14 28 -27 35 -68
    35 -57 0 -79 -31 -79 -113 l0 -66 -37 -10 c-59 -17 -159 -14 -177 5 -19 18
    -23 139 -5 149 5 4 21 4 35 1 20 -5 24 -13 24 -40 0 -60 50 -86 89 -47 17 17
    19 33 16 155 -2 147 -9 166 -54 166 -36 0 -51 -17 -51 -57 0 -35 -26 -58 -54
    -47 -12 5 -16 20 -16 58 0 76 2 77 116 74 l99 -3 0 -68 c0 -60 3 -71 24 -88
    30 -24 82 -24 112 0 22 18 23 23 20 147 -1 71 -6 133 -11 138 -10 10 -612 14
    -640 4z"/>
            <path d="M22880 3948 c-42 -15 -54 -92 -20 -123 14 -13 29 -16 54 -12 23 4 39
    1 46 -8 7 -8 10 -78 8 -206 l-3 -194 -45 -3 c-57 -4 -80 -25 -80 -72 0 -66 15
    -71 197 -72 87 0 163 0 170 1 42 4 60 93 25 124 -10 10 -35 17 -54 17 -23 0
    -38 5 -42 16 -10 26 -7 329 3 319 5 -6 49 -102 97 -215 48 -113 96 -217 106
    -232 19 -27 22 -28 118 -28 138 0 130 -17 130 290 0 165 4 250 11 257 6 6 28
    9 49 6 31 -4 40 -1 54 18 21 31 20 71 -2 99 -18 22 -24 23 -187 23 -163 0
    -169 -1 -187 -23 -39 -48 -10 -123 46 -119 55 5 56 2 56 -179 l0 -167 -66 155
    c-36 85 -79 189 -95 230 -17 41 -36 81 -44 89 -10 10 -52 14 -170 15 -86 0
    -165 -2 -175 -6z"/>
            <path d="M24174 3952 c-39 -6 -63 -47 -118 -202 -29 -85 -69 -198 -88 -250
    l-35 -95 -47 -5 c-57 -7 -68 -18 -70 -69 -1 -71 10 -75 195 -76 159 -1 161 0
    180 23 39 50 18 112 -36 112 -28 0 -35 4 -35 20 0 11 9 29 20 40 17 17 33 20
    105 20 73 0 86 -3 95 -19 18 -35 13 -61 -14 -61 -47 0 -56 -9 -56 -60 0 -72 6
    -74 192 -75 158 -1 160 -1 179 23 42 54 11 122 -56 122 -43 0 -36 -16 -117
    264 -72 253 -83 277 -123 288 -28 8 -125 8 -171 0z m120 -343 c-7 -12 -91 -11
    -99 1 -5 8 28 137 52 200 3 8 16 -32 29 -89 13 -57 21 -108 18 -112z"/>
            <path d="M24804 3945 c-9 -7 -14 -48 -16 -137 -3 -122 -2 -128 21 -152 30 -32
    82 -35 111 -6 21 21 24 38 20 109 -2 47 9 61 47 61 39 0 44 -28 41 -227 l-3
    -188 -62 -3 c-51 -2 -65 -7 -78 -25 -20 -29 -19 -70 3 -97 18 -22 22 -23 241
    -22 248 0 250 0 251 70 0 61 -13 72 -84 72 -49 0 -65 4 -70 16 -3 9 -6 96 -6
    194 0 196 5 214 59 208 25 -3 26 -6 31 -76 4 -62 9 -77 29 -93 32 -26 77 -24
    106 5 22 22 23 28 21 150 -2 70 -7 131 -13 137 -13 13 -632 17 -649 4z"/>
            <path d="M25683 3952 c-47 -7 -68 -76 -37 -120 13 -18 24 -23 53 -21 20 2 42
    0 49 -5 9 -5 12 -60 12 -207 l0 -199 -49 0 c-40 0 -53 -4 -65 -22 -21 -30 -20
    -71 2 -98 18 -22 20 -22 340 -22 218 0 327 4 336 11 10 8 13 48 14 147 1 157
    -7 174 -77 174 -54 0 -83 -36 -81 -100 1 -25 1 -53 1 -62 -1 -22 -58 -38 -138
    -38 -80 0 -93 13 -93 88 0 68 9 85 41 80 20 -2 25 -10 30 -46 6 -46 20 -62 55
    -62 45 0 52 24 50 178 -2 154 -4 162 -56 162 -35 0 -50 -17 -50 -57 0 -22 -6
    -36 -21 -43 -31 -17 -49 4 -49 55 0 75 0 75 110 75 65 0 101 -4 106 -12 4 -6
    6 -37 5 -69 -2 -47 1 -61 18 -78 27 -27 81 -27 112 -2 23 18 24 23 21 148 -2
    70 -7 132 -12 137 -8 8 -575 15 -627 8z"/>
            <path d="M19124 3416 c-46 -46 -47 -91 -3 -141 27 -30 37 -35 76 -35 63 0 103
    40 103 102 -1 100 -106 144 -176 74z"/>
            <path d="M20374 3416 c-39 -39 -45 -85 -17 -126 27 -40 45 -49 91 -50 110 0
    144 148 45 199 -42 21 -83 13 -119 -23z"/>
        </g>
    </g>
</svg>
